<svg width="245" height="40" viewBox="0 0 245 40" fill="none" xmlns="http://www.w3.org/2000/svg">
<path d="M3.50091 6L2.50091 16.5C2.16757 19.8333 1.90091 27.8 3.50091 33C5.10091 38.2 9.16697 37.5 11 36.5C13.5 34.6667 19.3 26.4 22.5 8C21.1667 18.6667 20.4 39.5 28 37.5C37.5 35 47.5 10.5 40 7C34 4.2 33.1667 11.1667 33.5 15C34.1667 17.8333 37.7 23.6 46.5 24L53 22M53 22C49.5 23.8333 43.8 29.2 49 36C52.1667 37.3333 58.5 37.9 58.5 29.5M53 22C54.8333 21 58.5 21.1 58.5 29.5M58.5 29.5C60.6667 30.6667 65.4 30.8 67 22L66.5 37C68.1667 31.8333 72.3 21.7 75.5 22.5C75.8333 22.3333 76.7 22.2 77.5 23C78.3 23.8 77.1667 32 76.5 36C78.8333 30.6667 84.2 20.3 87 21.5C89.8 22.7 87.5 28.3333 86 31C85.1667 33.3333 84.3 37.9 87.5 37.5C90.7 37.1 93.5 35 94.5 34C98.3333 32.6667 105.9 29.1 105.5 25.5C105.1 21.9 101.333 22 99.5 22.5C96.8333 24 92.4 28.3 96 33.5C99.6 38.7 106.167 36 109 34C110.333 32 113 26.9 113 22.5L112 37.5C114.167 31.6667 119.3 20.5 122.5 22.5C123.333 22.1667 124.4 24.4 122 36" stroke="#B8860B" stroke-width="3" stroke-linecap="round"/>
<path d="M135 3.5C135.167 5.5 134.9 10.2 132.5 13" stroke="#B8860B" stroke-width="3" stroke-linecap="round"/>
<path d="M136.5 35.5C139.333 32.5 145.1 25.5 145.5 21.5C144.833 23.3333 144.6 28.2 149 33C148.833 35.3333 147.4 39.5 143 37.5" stroke="#B8860B" stroke-width="3" stroke-linecap="round"/>
<path d="M170.5 7.50006C169.167 13.5001 167.4 26.7001 171 31.5001C175.5 37.5001 179.5 36.5001 183.5 26.5001C186.7 18.5001 188.5 10.5001 189 7.50006C187.5 15.0001 185.7 30.8001 190.5 34.0001C195.3 37.2001 197.833 36.0001 198.5 35.0001C200.667 33.5001 205.5 28.7001 207.5 21.5001M207.5 21.5001C210 12.5001 208.5 5.50006 206 6.00006C203.5 6.50006 196.5 19.5001 207.5 21.5001ZM207.5 21.5001L206.5 24.5L213.5 24L216 23.5M216 23.5C214.333 26.5 211.7 32.6 214.5 33M216 23.5C220.5 21 223.5 22.5 224.5 25.5C225.5 28.5 218 33.5 214.5 33M214.5 33C215.667 36 220.1 40.4 228.5 34C235.5 23.8333 247.4 3.3 239 2.5C236.333 3.16667 231 9.8 231 31M231 31C233 25.3333 238.2 16.9 243 28.5C243.333 30 243.2 33.5 240 35.5C236.8 37.5 234.333 36.6667 233.5 36C232.667 35.1667 231 33 231 31Z" stroke="#B8860B" stroke-width="3" stroke-linecap="round"/>
</svg>
